<svg xmlns="http://www.w3.org/2000/svg" xmlns:xlink="http://www.w3.org/1999/xlink" width="500" zoomAndPan="magnify" viewBox="0 0 375 374.999991" height="500" preserveAspectRatio="xMidYMid meet" version="1.2"><defs><clipPath id="c4489e9a47"><path d="M 0 125 L 282 125 L 282 335.625 L 0 335.625 Z M 0 125 "/></clipPath><clipPath id="c242f31e1f"><path d="M 36 39.375 L 375 39.375 L 375 327 L 36 327 Z M 36 39.375 "/></clipPath></defs><g id="50820fff63"><g clip-rule="nonzero" clip-path="url(#c4489e9a47)"><path style=" stroke:none;fill-rule:nonzero;fill:#cd1e25;fill-opacity:1;" d="M 120.003906 262.054688 L 26.453125 335.585938 C 28.085938 334.507812 111.800781 279.109375 152.847656 253.253906 C 163.382812 246.605469 171.113281 241.917969 173.90625 240.601562 C 179.265625 238.058594 185.664062 236.570312 191.488281 235.703125 C 193.222656 235.4375 194.910156 235.226562 196.503906 235.070312 C 199.441406 234.769531 202.402344 234.636719 205.351562 234.636719 C 207.972656 234.636719 210.582031 234.742188 213.203125 234.910156 C 215.203125 235.058594 217.167969 235.109375 219.0625 235.109375 C 259.347656 235.109375 276.175781 206.386719 281.273438 194.980469 C 282 193.375 280.757812 191.691406 279.152344 191.691406 C 278.929688 191.691406 278.691406 191.730469 278.453125 191.796875 L 238.539062 203.847656 C 237.894531 204.03125 237.25 204.125 236.601562 204.125 C 234.8125 204.125 233.0625 203.410156 231.757812 202.105469 C 214.058594 184.316406 219.246094 165.023438 222.050781 157.949219 C 222.75 156.214844 224.144531 154.859375 225.898438 154.1875 L 266.445312 138.617188 C 268.339844 137.898438 268.472656 135.25 266.640625 134.351562 C 259.6875 130.914062 245.570312 125.082031 230.164062 125.082031 C 213.53125 125.082031 195.371094 131.890625 183.097656 155.9375 C 180.453125 161.113281 177.578125 165.984375 174.550781 170.554688 C 171.007812 175.875 167.109375 180.933594 162.882812 185.699219 C 154.179688 195.535156 144.105469 204.160156 133.09375 211.445312 L 112.234375 225.222656 L 112.207031 225.246094 L 111.667969 225.601562 L -0.00390625 299.386719 C 2.140625 298.265625 138.46875 227.167969 140.707031 226.050781 C 138.96875 227.496094 45.824219 301.113281 45.390625 302.417969 C 44.953125 303.71875 118.871094 262.6875 120.003906 262.054688 "/></g><g clip-rule="nonzero" clip-path="url(#c242f31e1f)"><path style=" stroke:none;fill-rule:nonzero;fill:#000000;fill-opacity:1;" d="M 164.542969 269.324219 C 165.792969 273.5 166.121094 278.027344 165.320312 282.714844 L 164.277344 288.8125 C 163.9375 290.839844 165.027344 292.84375 166.925781 293.632812 L 205.929688 309.910156 C 207.828125 310.699219 210.015625 310.082031 211.210938 308.410156 L 214.820312 303.367188 C 226.660156 286.808594 251.300781 286.875 263.046875 303.496094 L 266.628906 308.550781 C 267.8125 310.238281 270 310.871094 271.898438 310.09375 L 310.992188 294.015625 C 312.890625 293.238281 314 291.25 313.667969 289.21875 L 312.652344 283.109375 C 309.324219 263.027344 326.785156 245.660156 346.84375 249.09375 L 352.953125 250.148438 C 354.980469 250.492188 356.96875 249.398438 357.757812 247.503906 L 374.046875 208.492188 C 374.835938 206.597656 374.21875 204.398438 372.546875 203.214844 L 367.503906 199.605469 C 350.949219 187.765625 351.015625 163.128906 367.632812 151.371094 L 372.691406 147.796875 C 374.367188 146.613281 374.996094 144.425781 374.21875 142.515625 L 358.152344 103.433594 C 357.375 101.519531 355.375 100.417969 353.359375 100.761719 L 347.25 101.773438 C 327.164062 105.105469 309.796875 87.628906 313.234375 67.574219 L 314.273438 61.464844 C 314.628906 59.445312 313.523438 57.445312 311.628906 56.65625 L 272.621094 40.378906 C 270.722656 39.589844 268.539062 40.210938 267.339844 41.878906 L 263.746094 46.921875 C 251.890625 63.480469 227.265625 63.398438 215.507812 46.792969 L 211.9375 41.734375 C 210.742188 40.050781 208.554688 39.417969 206.65625 40.195312 L 167.570312 56.277344 C 165.660156 57.050781 164.554688 59.039062 164.898438 61.070312 L 165.910156 67.179688 C 169.242188 87.257812 151.769531 104.632812 131.710938 101.195312 L 125.601562 100.140625 C 123.574219 99.800781 121.585938 100.890625 120.796875 102.785156 L 104.519531 141.792969 C 104.292969 142.347656 104.175781 142.925781 104.175781 143.492188 C 104.175781 144.890625 104.832031 146.230469 106.019531 147.074219 C 125.035156 160.679688 124.957031 188.980469 105.875 202.492188 L 105.859375 202.492188 C 104.191406 203.675781 103.558594 205.859375 104.332031 207.757812 L 104.519531 208.21875 L 36.871094 265.542969 C 38.726562 264.316406 87.136719 232.347656 105.914062 219.925781 L 106.996094 219.214844 C 107.558594 218.832031 108.097656 218.476562 108.601562 218.148438 C 111.445312 216.277344 113.15625 215.148438 113.277344 215.066406 L 128.75 204.847656 C 141.8125 196.207031 153.019531 185.949219 162.144531 174.242188 C 162.25 164.617188 164.160156 154.84375 168.097656 145.429688 C 184.507812 106.121094 229.675781 87.550781 268.988281 103.960938 C 308.296875 120.371094 326.863281 165.539062 310.46875 204.847656 C 294.058594 244.167969 248.878906 262.738281 209.566406 246.328125 C 206.921875 245.222656 204.363281 243.984375 201.902344 242.613281 C 200.320312 242.667969 198.78125 242.773438 197.292969 242.929688 C 189.078125 243.777344 182.148438 245.433594 177.277344 247.738281 C 175.605469 248.53125 171.773438 250.78125 166.292969 254.164062 C 164.09375 255.523438 161.617188 257.0625 158.90625 258.773438 C 134.738281 273.960938 92.035156 301.824219 55.054688 326.175781 L 164.542969 269.324219 "/></g></g></svg>